<svg xmlns="http://www.w3.org/2000/svg" viewBox="0 0 100 100" fill="none">
  <defs>
    <linearGradient id="g" x1="25" y1="18" x2="75" y2="82" gradientUnits="userSpaceOnUse">
      <stop offset="0%" stop-color="#60a5fa"/>
      <stop offset="50%" stop-color="#6366f1"/>
      <stop offset="100%" stop-color="#a78bfa"/>
    </linearGradient>
  </defs>
  <!-- Brain outline -->
  <path d="M50 16 C38 16, 28 22, 24 32 C20 40, 20 48, 24 54 C22 58, 20 64, 22 70 C24 78, 34 86, 50 86 C66 86, 76 78, 78 70 C80 64, 78 58, 76 54 C80 48, 80 40, 76 32 C72 22, 62 16, 50 16Z" stroke="url(#g)" stroke-width="2.5" stroke-linejoin="round"/>
  <!-- Center divide -->
  <path d="M50 22 C48 34, 52 44, 50 52 C48 60, 52 70, 50 80" stroke="#6366f1" stroke-width="1" opacity=".25"/>
  <!-- Neural connections -->
  <line x1="36" y1="38" x2="50" y2="50" stroke="#60a5fa" stroke-width="1.2" opacity=".6"/>
  <line x1="64" y1="36" x2="50" y2="50" stroke="#60a5fa" stroke-width="1.2" opacity=".6"/>
  <line x1="34" y1="60" x2="50" y2="50" stroke="#818cf8" stroke-width="1.2" opacity=".5"/>
  <line x1="66" y1="62" x2="50" y2="50" stroke="#818cf8" stroke-width="1.2" opacity=".5"/>
  <line x1="36" y1="38" x2="64" y2="36" stroke="#60a5fa" stroke-width=".8" opacity=".2"/>
  <line x1="34" y1="60" x2="66" y2="62" stroke="#818cf8" stroke-width=".8" opacity=".2"/>
  <line x1="36" y1="38" x2="34" y2="60" stroke="#6366f1" stroke-width=".8" opacity=".2"/>
  <line x1="64" y1="36" x2="66" y2="62" stroke="#6366f1" stroke-width=".8" opacity=".2"/>
  <!-- Nodes -->
  <circle cx="50" cy="50" r="4.5" fill="#60a5fa"/>
  <circle cx="50" cy="50" r="8" fill="#60a5fa" opacity=".1"/>
  <circle cx="36" cy="38" r="3" fill="#6366f1"/>
  <circle cx="64" cy="36" r="3" fill="#6366f1"/>
  <circle cx="34" cy="60" r="2.5" fill="#818cf8"/>
  <circle cx="66" cy="62" r="2.5" fill="#818cf8"/>
  <!-- Small outer nodes -->
  <circle cx="28" cy="46" r="1.5" fill="#a78bfa" opacity=".6"/>
  <line x1="28" y1="46" x2="36" y2="38" stroke="#a78bfa" stroke-width=".7" opacity=".3"/>
  <circle cx="72" cy="48" r="1.5" fill="#a78bfa" opacity=".6"/>
  <line x1="72" y1="48" x2="64" y2="36" stroke="#a78bfa" stroke-width=".7" opacity=".3"/>
  <circle cx="42" cy="72" r="1.5" fill="#a78bfa" opacity=".5"/>
  <line x1="42" y1="72" x2="34" y2="60" stroke="#a78bfa" stroke-width=".7" opacity=".25"/>
  <circle cx="58" cy="73" r="1.5" fill="#a78bfa" opacity=".5"/>
  <line x1="58" y1="73" x2="66" y2="62" stroke="#a78bfa" stroke-width=".7" opacity=".25"/>
</svg>
